<?xml version="1.0" encoding="utf-8"?>
<!-- Generator: Adobe Illustrator 26.0.1, SVG Export Plug-In . SVG Version: 6.00 Build 0)  -->
<svg version="1.1" id="Layer_1" xmlns="http://www.w3.org/2000/svg" xmlns:xlink="http://www.w3.org/1999/xlink" x="0px" y="0px"
	 viewBox="0 0 58.8 56.7" style="enable-background:new 0 0 58.8 56.7;" xml:space="preserve">
<style type="text/css">
	.st0{fill-rule:evenodd;clip-rule:evenodd;fill:#40494D;}
	.st1{fill:none;stroke:#40494D;}
</style>
<path class="st0" d="M22.4,27.6c0-2.8,2.3-5,5-5s5,2.3,5,5c0,1.4-0.5,2.6-1.4,3.5c0,0-0.1,0-0.1,0.1c0,0,0,0.1-0.1,0.1
	c-0.9,0.9-2.1,1.4-3.5,1.4C24.7,32.6,22.4,30.4,22.4,27.6z M31.6,33c-1.2,0.9-2.6,1.4-4.2,1.4c-3.8,0-6.8-3.1-6.8-6.8
	c0-3.8,3.1-6.8,6.8-6.8s6.8,3.1,6.8,6.8c0,1.6-0.5,3-1.4,4.1l2.6,2.6c0.3,0.3,0.3,0.9,0,1.3c-0.4,0.3-0.9,0.3-1.3,0L31.6,33z"/>
<path class="st1" d="M0.7,28.3C0.7,13.2,13,0.8,28.2,0.8h2c15.2,0,27.5,12.3,27.5,27.5S45.4,55.8,30.2,55.8h-2
	C13,55.8,0.7,43.5,0.7,28.3z"/>
<path class="st0" d="M21.7,27.5c0-3.1,2.5-5.7,5.7-5.7s5.7,2.5,5.7,5.7c0,1.5-0.6,2.9-1.6,3.9c0,0-0.1,0.1-0.1,0.1
	c0,0-0.1,0.1-0.1,0.1c-1,1-2.4,1.6-3.9,1.6C24.3,33.2,21.7,30.6,21.7,27.5z M32.1,33.6c-1.3,1-2.9,1.6-4.7,1.6
	c-4.2,0-7.7-3.4-7.7-7.7c0-4.2,3.4-7.7,7.7-7.7c4.2,0,7.7,3.4,7.7,7.7c0,1.8-0.6,3.4-1.6,4.7l3,3c0.4,0.4,0.4,1,0,1.4s-1,0.4-1.4,0
	L32.1,33.6z"/>
</svg>
