<svg width="60" height="61" fill="none" xmlns="http://www.w3.org/2000/svg"><path fill-rule="evenodd" clip-rule="evenodd" d="M28.022.045l-1.493.09v60.73l1.493.09a32.214 32.214 0 003.37 0l1.492-.09V.136l-1.492-.09a31.76 31.76 0 00-3.37 0zm14.956 30.782a1.249 1.249 0 010-.924l8.04-21.094-.798-.73a31.297 31.297 0 00-2.763-2.281l-1.67-1.223-8.765 23.017a7.792 7.792 0 00-.014 5.516l8.749 23.314 1.685-1.222a31.44 31.44 0 002.764-2.28l.783-.731-8.01-21.362zM9.917 27.13l-7.626-9.794-.976 2.698A31.047 31.047 0 00.163 24.09L0 24.82l4.286 5.486a.497.497 0 010 .626L.03 36.3l.162.745a30.46 30.46 0 001.168 4.01l.975 2.654 7.567-9.556c1.655-2.087 1.655-4.904.015-7.021zm49.51-2.386l-4.27 5.396a.518.518 0 00-.015.626l4.271 5.471-.162.73a31.581 31.581 0 01-1.168 4.04l-.975 2.684-7.597-9.75c-1.64-2.116-1.64-4.949.03-7.05l7.596-9.586.975 2.668A30.599 30.599 0 0159.265 24l.163.745zM11.972 5.798l1.685-1.223 8.78 23.405a7.792 7.792 0 01-.016 5.515l-8.734 22.942-1.67-1.222a31.294 31.294 0 01-2.764-2.28l-.798-.731 8.01-21.02a1.249 1.249 0 000-.924L8.424 8.824l.783-.745a31.3 31.3 0 012.764-2.281z" fill="#61D7AC"/></svg>