<svg version="1.1" id="Layer_1" xmlns="http://www.w3.org/2000/svg" x="0" y="0" viewBox="0 0 58.8 56.7" xml:space="preserve"><style>.st0{fill-rule:evenodd;clip-rule:evenodd;fill:#40494d}</style><path class="st0" d="M22.4 27.6c0-2.8 2.3-5 5-5s5 2.3 5 5c0 1.4-.5 2.6-1.4 3.5 0 0-.1 0-.1.1 0 0 0 .1-.1.1-.9.9-2.1 1.4-3.5 1.4-2.6-.1-4.9-2.3-4.9-5.1zm9.2 5.4c-1.2.9-2.6 1.4-4.2 1.4-3.8 0-6.8-3.1-6.8-6.8 0-3.8 3.1-6.8 6.8-6.8s6.8 3.1 6.8 6.8c0 1.6-.5 3-1.4 4.1l2.6 2.6c.3.3.3.9 0 1.3-.4.3-.9.3-1.3 0L31.6 33z"/><path d="M.7 28.3C.7 13.2 13 .8 28.2.8h2c15.2 0 27.5 12.3 27.5 27.5S45.4 55.8 30.2 55.8h-2C13 55.8.7 43.5.7 28.3z" fill="none" stroke="#40494d"/><path class="st0" d="M21.7 27.5c0-3.1 2.5-5.7 5.7-5.7s5.7 2.5 5.7 5.7c0 1.5-.6 2.9-1.6 3.9l-.1.1-.1.1c-1 1-2.4 1.6-3.9 1.6-3.1 0-5.7-2.6-5.7-5.7zm10.4 6.1c-1.3 1-2.9 1.6-4.7 1.6-4.2 0-7.7-3.4-7.7-7.7 0-4.2 3.4-7.7 7.7-7.7 4.2 0 7.7 3.4 7.7 7.7 0 1.8-.6 3.4-1.6 4.7l3 3c.4.4.4 1 0 1.4s-1 .4-1.4 0l-3-3z"/></svg>